<svg xmlns="http://www.w3.org/2000/svg" xmlns:xlink="http://www.w3.org/1999/xlink" width="1080" zoomAndPan="magnify" viewBox="0 0 810 809.999993" height="1080" preserveAspectRatio="xMidYMid meet" version="1.0"><defs><clipPath id="id1"><path d="M 3 217.6875 L 808 217.6875 L 808 592.6875 L 3 592.6875 Z M 3 217.6875 " clip-rule="nonzero"/></clipPath></defs><rect x="-81" width="972" fill="#ffffff" y="-80.999999" height="971.999992" fill-opacity="1"/><rect x="-81" width="972" fill="#ffffff" y="-80.999999" height="971.999992" fill-opacity="1"/><rect x="-81" width="972" fill="#ffffff" y="-80.999999" height="971.999992" fill-opacity="1"/><g clip-path="url(#id1)"><path fill="#ff1616" d="M 784.785156 359.410156 C 797.011719 362.984375 805.09375 363.808594 806.203125 363.898438 L 807.152344 351.863281 C 806.230469 351.773438 713.105469 342.753906 652.214844 220.808594 L 650.535156 217.472656 L 611.839844 217.472656 L 610.75 222.171875 C 609.554688 227.476562 579.21875 351.824219 405.5 351.824219 C 231.761719 351.824219 201.4375 227.476562 200.222656 222.171875 L 199.152344 217.472656 L 160.453125 217.472656 L 158.777344 220.808594 C 97.875 342.753906 4.757812 351.773438 3.828125 351.863281 L 4.777344 363.898438 C 5.886719 363.808594 13.96875 362.984375 26.199219 359.410156 L 26.199219 425.8125 L 3.835938 425.8125 L 3.835938 446.957031 L 167.203125 446.957031 L 167.203125 558.664062 L 156.394531 558.664062 L 156.394531 592.882812 L 204.652344 592.882812 L 204.652344 558.664062 L 192.835938 558.664062 L 192.835938 446.96875 L 618.152344 446.96875 L 618.152344 558.671875 L 606.328125 558.671875 L 606.328125 592.894531 L 654.585938 592.894531 L 654.585938 558.671875 L 643.789062 558.671875 L 643.789062 446.96875 L 807.144531 446.96875 L 807.144531 425.820312 L 784.785156 425.820312 Z M 62.394531 425.820312 L 32.972656 425.820312 L 32.972656 357.292969 C 41.496094 354.394531 51.480469 350.242188 62.394531 344.304688 Z M 98.59375 425.820312 L 69.171875 425.820312 L 69.171875 340.347656 C 78.574219 334.761719 88.460938 327.851562 98.59375 319.300781 Z M 134.78125 425.820312 L 105.359375 425.820312 L 105.359375 313.382812 C 115.175781 304.4375 125.0625 293.796875 134.78125 281.425781 Z M 167.203125 425.820312 L 141.566406 425.820312 L 141.566406 272.660156 C 150.429688 260.417969 159.0625 246.546875 167.203125 230.800781 Z M 207.175781 425.820312 L 192.835938 425.820312 L 192.835938 238.105469 C 195.738281 245.558594 200.320312 255.601562 207.175781 266.78125 Z M 243.382812 425.820312 L 213.960938 425.820312 L 213.960938 277.097656 C 221.523438 287.796875 231.210938 299.089844 243.382812 309.855469 Z M 279.570312 425.820312 L 250.148438 425.820312 L 250.148438 315.582031 C 258.757812 322.511719 268.546875 329.117188 279.570312 335.125 Z M 315.765625 425.820312 L 286.355469 425.820312 L 286.355469 338.679688 C 295.347656 343.15625 305.125 347.210938 315.765625 350.695312 Z M 351.964844 425.820312 L 322.542969 425.820312 L 322.542969 352.765625 C 331.730469 355.476562 341.53125 357.773438 351.964844 359.550781 Z M 388.152344 425.820312 L 358.730469 425.820312 L 358.730469 360.621094 C 368.046875 361.972656 377.824219 362.945312 388.152344 363.464844 Z M 416.050781 425.820312 L 394.9375 425.820312 L 394.9375 363.703125 C 398.417969 363.808594 401.890625 363.917969 405.5 363.917969 C 409.097656 363.917969 412.570312 363.800781 416.050781 363.703125 Z M 452.25 425.820312 L 422.820312 425.820312 L 422.820312 363.464844 C 433.144531 362.945312 442.941406 361.972656 452.25 360.621094 Z M 488.445312 425.820312 L 459.015625 425.820312 L 459.015625 359.558594 C 469.453125 357.773438 479.25 355.484375 488.445312 352.777344 Z M 524.636719 425.820312 L 495.203125 425.820312 L 495.203125 350.683594 C 505.855469 347.210938 515.632812 343.144531 524.636719 338.667969 Z M 560.84375 425.820312 L 531.410156 425.820312 L 531.410156 335.125 C 542.433594 329.117188 552.210938 322.511719 560.84375 315.582031 Z M 597.03125 425.820312 L 567.597656 425.820312 L 567.597656 309.847656 C 579.777344 299.078125 589.457031 287.789062 597.03125 277.089844 Z M 618.152344 425.820312 L 603.796875 425.820312 L 603.796875 266.789062 C 610.652344 255.601562 615.25 245.566406 618.152344 238.117188 Z M 669.425781 425.820312 L 643.789062 425.820312 L 643.789062 230.800781 C 651.917969 246.546875 660.550781 260.417969 669.425781 272.660156 Z M 705.621094 425.820312 L 676.179688 425.820312 L 676.179688 281.425781 C 685.917969 293.804688 695.796875 304.449219 705.621094 313.382812 Z M 741.820312 425.820312 L 712.386719 425.820312 L 712.386719 319.308594 C 722.519531 327.851562 732.414062 334.761719 741.820312 340.359375 Z M 778.015625 425.820312 L 748.578125 425.820312 L 748.578125 344.304688 C 759.511719 350.242188 769.484375 354.394531 778.015625 357.292969 Z M 778.015625 425.820312 " fill-opacity="1" fill-rule="nonzero"/></g></svg>