<svg xmlns="http://www.w3.org/2000/svg" xmlns:xlink="http://www.w3.org/1999/xlink" width="1080" zoomAndPan="magnify" viewBox="0 0 810 809.999993" height="1080" preserveAspectRatio="xMidYMid meet" version="1.0"><defs><clipPath id="id1"><path d="M 3 216.953125 L 808 216.953125 L 808 591.953125 L 3 591.953125 Z M 3 216.953125 " clip-rule="nonzero"/></clipPath></defs><rect x="-81" width="972" fill="#ffffff" y="-80.999999" height="971.999992" fill-opacity="1"/><rect x="-81" width="972" fill="#ffffff" y="-80.999999" height="971.999992" fill-opacity="1"/><g clip-path="url(#id1)"><path fill="#7ed957" d="M 784.785156 358.675781 C 797.011719 362.25 805.09375 363.074219 806.203125 363.164062 L 807.152344 351.128906 C 806.230469 351.039062 713.105469 342.015625 652.214844 220.074219 L 650.535156 216.734375 L 611.839844 216.734375 L 610.75 221.4375 C 609.554688 226.738281 579.21875 351.089844 405.5 351.089844 C 231.761719 351.089844 201.4375 226.738281 200.222656 221.4375 L 199.152344 216.734375 L 160.453125 216.734375 L 158.777344 220.074219 C 97.875 342.015625 4.757812 351.039062 3.828125 351.128906 L 4.777344 363.164062 C 5.886719 363.074219 13.96875 362.25 26.199219 358.675781 L 26.199219 425.078125 L 3.835938 425.078125 L 3.835938 446.222656 L 167.203125 446.222656 L 167.203125 557.925781 L 156.394531 557.925781 L 156.394531 592.148438 L 204.652344 592.148438 L 204.652344 557.925781 L 192.835938 557.925781 L 192.835938 446.230469 L 618.152344 446.230469 L 618.152344 557.9375 L 606.328125 557.9375 L 606.328125 592.15625 L 654.585938 592.15625 L 654.585938 557.9375 L 643.789062 557.9375 L 643.789062 446.230469 L 807.144531 446.230469 L 807.144531 425.085938 L 784.785156 425.085938 Z M 62.394531 425.085938 L 32.972656 425.085938 L 32.972656 356.554688 C 41.496094 353.660156 51.480469 349.507812 62.394531 343.570312 Z M 98.59375 425.085938 L 69.171875 425.085938 L 69.171875 339.613281 C 78.574219 334.027344 88.460938 327.117188 98.59375 318.566406 Z M 134.78125 425.085938 L 105.359375 425.085938 L 105.359375 312.644531 C 115.175781 303.703125 125.0625 293.0625 134.78125 280.691406 Z M 167.203125 425.085938 L 141.566406 425.085938 L 141.566406 271.925781 C 150.429688 259.683594 159.0625 245.8125 167.203125 230.066406 Z M 207.175781 425.085938 L 192.835938 425.085938 L 192.835938 237.371094 C 195.738281 244.820312 200.320312 254.863281 207.175781 266.046875 Z M 243.382812 425.085938 L 213.960938 425.085938 L 213.960938 276.363281 C 221.523438 287.0625 231.210938 298.351562 243.382812 309.121094 Z M 279.570312 425.085938 L 250.148438 425.085938 L 250.148438 314.84375 C 258.757812 321.773438 268.546875 328.382812 279.570312 334.390625 Z M 315.765625 425.085938 L 286.355469 425.085938 L 286.355469 337.945312 C 295.347656 342.417969 305.125 346.472656 315.765625 349.960938 Z M 351.964844 425.085938 L 322.542969 425.085938 L 322.542969 352.03125 C 331.730469 354.738281 341.53125 357.035156 351.964844 358.8125 Z M 388.152344 425.085938 L 358.730469 425.085938 L 358.730469 359.882812 C 368.046875 361.238281 377.824219 362.210938 388.152344 362.730469 Z M 416.050781 425.085938 L 394.9375 425.085938 L 394.9375 362.964844 C 398.417969 363.074219 401.890625 363.183594 405.5 363.183594 C 409.097656 363.183594 412.570312 363.0625 416.050781 362.964844 Z M 452.25 425.085938 L 422.820312 425.085938 L 422.820312 362.730469 C 433.144531 362.210938 442.941406 361.238281 452.25 359.882812 Z M 488.445312 425.085938 L 459.015625 425.085938 L 459.015625 358.824219 C 469.453125 357.035156 479.25 354.75 488.445312 352.039062 Z M 524.636719 425.085938 L 495.203125 425.085938 L 495.203125 349.949219 C 505.855469 346.472656 515.632812 342.410156 524.636719 337.933594 Z M 560.84375 425.085938 L 531.410156 425.085938 L 531.410156 334.390625 C 542.433594 328.382812 552.210938 321.773438 560.84375 314.84375 Z M 597.03125 425.085938 L 567.597656 425.085938 L 567.597656 309.113281 C 579.777344 298.34375 589.457031 287.054688 597.03125 276.351562 Z M 618.152344 425.085938 L 603.796875 425.085938 L 603.796875 266.054688 C 610.652344 254.863281 615.25 244.832031 618.152344 237.378906 Z M 669.425781 425.085938 L 643.789062 425.085938 L 643.789062 230.066406 C 651.917969 245.8125 660.550781 259.683594 669.425781 271.925781 Z M 705.621094 425.085938 L 676.179688 425.085938 L 676.179688 280.691406 C 685.917969 293.070312 695.796875 303.710938 705.621094 312.644531 Z M 741.820312 425.085938 L 712.386719 425.085938 L 712.386719 318.574219 C 722.519531 327.117188 732.414062 334.027344 741.820312 339.621094 Z M 778.015625 425.085938 L 748.578125 425.085938 L 748.578125 343.566406 C 759.511719 349.507812 769.484375 353.660156 778.015625 356.554688 Z M 778.015625 425.085938 " fill-opacity="1" fill-rule="nonzero"/></g></svg>